<svg viewBox="0 0 512 512" xmlns="http://www.w3.org/2000/svg" fill-rule="evenodd" clip-rule="evenodd" stroke-linejoin="round" stroke-miterlimit="2"><path d="M203.58 258.505V244.26h177.837v2.763c-22.762 7.364-56.477 14.315-65.138 15.669 4.73 2.179 6.253 4.102 8.262 4.757a169.01 169.01 0 0120.668 3.775c13.404 3.062 24.486 5.968 33.616 9.159 9.472 3.532 14.486 5.156 20.084 6.751a204.262 204.262 0 0019.8 4.316c5.512.798 17.206-3.233 19.955-3.945 2.75-.698 38.331-14.444 38.331-14.444s15.455-5.74 21.566-7.278c5.626-1.539 5.769.327 5.769.327a36.741 36.741 0 011.196 4.943c.57 5.256.627 10.555.157 15.825-.613 4.06-1.424 8.09-2.45 12.065a51.929 51.929 0 01-3.69 9.53c-1.139 1.965-2.905 5.056-3.503 6.395a17.87 17.87 0 00-1.767 5.897 28.102 28.102 0 00.4 8.318c.484 2.336 2.065 8.22 2.065 8.22l1.851 7.335-254.87-.3v14.857H37.324c.114-.342.142-.712.057-1.068-.214-.897-1.254-2.236-5.228-4.615-5.142-3.319-21.337-9.145-26.024-10.854-.185-4.416-2.108-24.785 23.446-47.134a243.43 243.43 0 0124.115-18.019s21.965-14.272 39.414-19.97" fill="#2800ff" fill-rule="nonzero"/><path d="M498.56 344.653l-254.869-.313v14.856H37.323c-1.14 3.348-16.623 9.259-27.235 11.31 5.698 7.777 16.438 14.885 27.235 21.01a248.379 248.379 0 0032.291 14.643c4.074 1.396 16.181 6.11 23.403 6.666 10.042.713 20.141.527 30.155-.555a140.043 140.043 0 0015.74-2.436s1.011 3.96 7.321 12.663c4.558 6.011 10.156 12.179 15.74 15.825 6.652 4.174 8.86 6.382 23.275 8.988a115.802 115.802 0 0032.519 1.51c7.321-.67 14.415-.911 20.71-2.65.3-8.033-.711-15.454-3.973-22.006 8.76.356 13.617.598 25.824.37 23.589-.442 49.328-5.27 70.437-9.287 17.45-3.305 45.98-11.239 59.626-15.754 7.834-2.593 26.466-8.888 28.204-8.888 2.806 0 7.008.655 12.876 2.378 8.703 2.564 15.398 4.843 30.084 10.085 14.685 5.256 27.747 9.829 35.71 10.911 5.868.812 6.595 0 7.008-2.934.67-3.69-4.516-12.122-6.652-18.731a34.564 34.564 0 01-1.539-21.01 53.725 53.725 0 011.995-6.054 32.865 32.865 0 001.823-12.577 38.647 38.647 0 00-1.34-8.034z" fill="#5a78ff" fill-rule="nonzero"/><path d="M495.228 223.28a27.296 27.296 0 011.054-8.234c.513-1.624 1.025-3.048 1.994-5.783a32.604 32.604 0 001.538-12.877 66.673 66.673 0 00-1.282-7.663l-186.91-.313v14.472H37.45c.555 3.96-16.666 10.298-27.277 12.392 5.54 7.55 16.708 14.985 27.533 21.138a253.793 253.793 0 0032.349 14.629c4.871 1.723 15.54 5.669 23.09 6.524l110.434.94V244.26h177.837v2.763c2.678-.74 6.667-1.923 9.23-2.763 7.835-2.593 26.78-9.074 28.517-9.102 2.806 0 6.396.612 12.25 2.336 8.718 2.55 15.64 5.113 30.34 10.327 14.7 5.213 27.463 9.7 35.397 10.868 6.823.997 7.221-1.268 7.221-3.974.171-3.447-4.97-12.165-7.122-18.817a41.261 41.261 0 01-2.022-12.62z" fill="#fec1ee" fill-rule="nonzero"/><path d="M505.54 115.921c.143 2.636.542 13.39.143 15.826a94.124 94.124 0 01-2.28 11.067c-1.053 3.32-2.663 8.077-3.902 10.242-1.14 1.98-2.991 5.042-3.59 6.381a19.714 19.714 0 00-1.68 6.21 28.102 28.102 0 00.399 8.32c.484 2.35 2.065 8.218 2.065 8.218l1.837 6.538-186.91-.313v14.457H37.45s.242-1.61-4.715-4.686c-4.472-2.421-19.03-8.56-26.423-10.825-.726-3.69-2.293-24.6 23.261-46.949a242.141 242.141 0 0124.144-18.019s21.195-14.956 43.986-21.665a115.181 115.181 0 0116.75-3.39c16.153-1.31 42.05-1.937 44.585-1.852a189.899 189.899 0 0116.551-19.087c9.658-9.444 15.127-13.09 20.896-13.731 7.977.47 50.624 10.37 62.66 13.945 6.923 1.937 20.754 5.655 31.722 10.213 11.295 4.316 14.044 7.99 14.044 7.99a102.438 102.438 0 006.88 9.16c2.664 2.649 10.327 7.221 12.45 8.076 3.219.812 8.646.855 20.938 3.803 12.849 3.048 24.4 6.296 33.588 9.13 9.515 3.163 14.472 5.342 20.155 6.795 5.698 1.453 14.8 3.632 19.842 4.359 5.043.726 16.125-3.234 18.874-3.932 2.749-.698 39.37-14.258 39.37-14.258s19.757-7.022 21.538-7.606c5.996-1.938 6.994-2.066 6.994 5.583z" fill="#ff7698" fill-rule="nonzero"/><path d="M93.003 138.228c-12.934 0-22.69 9.857-23.332 23.844-.655 13.817 10.484 23.845 23.332 23.845s23.332-10.669 23.332-23.845c0-13.176-10.398-23.844-23.332-23.844zm-5.456 42.675c-9.913 0-17.961-7.037-17.876-18.346.313-9.288 8.048-18.347 17.876-18.347 9.843 0 17.891 8.162 17.891 18.347 0 10.184-7.962 18.346-17.876 18.346h-.015z" fill="#fff" fill-rule="nonzero"/><path d="M87.562 144.281c-9.928 0-17.649 9.06-17.89 18.347 0 11.31 8.047 18.346 17.89 18.346 9.842 0 17.89-8.162 17.89-18.346 0-10.185-7.976-18.347-17.89-18.347zM79.1 174.835a6.174 6.174 0 01-3.39-.926 6.143 6.143 0 01-2.28-2.65 5.953 5.953 0 011.197-6.58 6.029 6.029 0 013.077-1.68 6.142 6.142 0 013.504.312 5.99 5.99 0 012.72 2.208 5.9 5.9 0 011.026 3.333 5.86 5.86 0 01-.413 2.265 5.817 5.817 0 01-1.254 1.937 6.084 6.084 0 01-1.908 1.31c-.727.3-1.496.471-2.28.471z" fill-rule="nonzero"/><path d="M79.1 174.835c3.234 0 5.855-2.678 5.855-5.968 0-3.305-2.62-5.983-5.854-5.983s-5.855 2.678-5.855 5.983c0 3.29 2.621 5.968 5.855 5.968zM93.003 294.67c-12.934 0-22.69 9.857-23.332 23.845-.655 13.817 10.484 23.83 23.332 23.83s23.332-10.654 23.332-23.83c0-13.176-10.398-23.844-23.332-23.844zm-5.456 42.676c-9.913 0-17.961-7.037-17.876-18.347.313-9.3 8.048-18.346 17.876-18.346 9.843 0 17.891 8.162 17.891 18.346 0 10.185-7.962 18.347-17.876 18.347h-.015z" fill="#fff" fill-rule="nonzero"/><path d="M87.562 300.739c-9.928 0-17.649 9.045-17.89 18.332 0 11.324 8.047 18.346 17.89 18.346 9.842 0 17.89-8.162 17.89-18.346 0-10.17-7.976-18.332-17.89-18.332zM79.1 331.278a6.057 6.057 0 01-3.39-.926 6.063 6.063 0 01-2.28-2.65 5.892 5.892 0 01-.413-3.46 5.847 5.847 0 011.61-3.106 6.158 6.158 0 013.077-1.695 6.142 6.142 0 013.504.313 6.081 6.081 0 012.72 2.208 5.934 5.934 0 011.026 3.333 5.811 5.811 0 01-.413 2.265 5.817 5.817 0 01-1.254 1.937 6.146 6.146 0 01-1.922 1.31c-.713.3-1.482.457-2.265.47z" fill-rule="nonzero"/><path d="M79.1 331.278c3.234 0 5.855-2.678 5.855-5.983 0-3.304-2.62-5.982-5.854-5.982s-5.855 2.678-5.855 5.982c0 3.305 2.621 5.983 5.855 5.983z" fill="#fff" fill-rule="nonzero"/><path d="M188.51 202.882c-3.348 12.463-6.823 22.733-6.88 22.918a5.386 5.386 0 00-.285 2.18 5.606 5.606 0 001.923 3.888 5.76 5.76 0 001.923 1.097 5.557 5.557 0 002.208.285 5.675 5.675 0 003.902-1.909c.499-.57.87-1.21 1.112-1.923.284-.812 4.273-12.648 7.876-26.536h-11.78zM162.3 202.882c-1.04 2.336-1.78 3.76-1.823 3.846a4.828 4.828 0 00-.256 3.618 4.846 4.846 0 002.364 2.777 4.81 4.81 0 003.633.37 4.87 4.87 0 002.877-2.236 92.077 92.077 0 003.803-8.375H162.3z" fill="#5a78ff" fill-rule="nonzero"/><path d="M194.55 171.886c0 .171-.044.328-.058.499-.655 8.831-3.262 20.383-5.982 30.497h11.822c2.536-9.815 4.872-20.669 5.527-29.443 1.453-9.771-4.558-28.132-8.532-38.858a981.346 981.346 0 01101.731 9.188c57.788 8.318 127.499 42.746 128.197 43.088a5.95 5.95 0 002.15.627 5.953 5.953 0 002.237-.257 5.521 5.521 0 001.952-1.096 5.707 5.707 0 001.381-1.752c.342-.684.542-1.41.584-2.166a5.557 5.557 0 00-.285-2.207 5.833 5.833 0 00-1.14-1.923 5.344 5.344 0 00-1.794-1.34c-2.906-1.452-72.018-35.567-131.644-44.17-61.79-8.889-111.218-9.515-111.716-9.515a5.684 5.684 0 00-2.692.64 5.623 5.623 0 00-2.08 1.838 5.734 5.734 0 00-.954 2.593c-.086.94.042 1.88.398 2.734 4.872 11.809 12.165 33.317 10.897 41.023zM169.08 173.04c.955 10.769-3.973 23.56-6.765 29.827h10.569c3.12-7.777 6.851-19.77 5.883-30.696a89.573 89.573 0 00-14.472-41.065 4.746 4.746 0 00-1.382-1.282 4.746 4.746 0 00-1.78-.67 5.058 5.058 0 00-1.91.057 4.916 4.916 0 00-1.737.784c-.527.37-.969.84-1.296 1.381a4.657 4.657 0 00-.67 1.78 4.643 4.643 0 00.057 1.881c.143.627.413 1.21.784 1.738a81.05 81.05 0 0112.72 36.265z" fill="#2800ff" fill-rule="nonzero"/><path d="M188.61 359.168c-3.348 12.463-6.81 22.72-6.88 22.919a5.61 5.61 0 00.313 4.287 5.716 5.716 0 003.262 2.835 5.69 5.69 0 007.208-3.504c.284-.798 4.287-12.65 7.876-26.551l-11.78.014zM162.414 359.168c-1.054 2.322-1.794 3.76-1.837 3.846-.613 1.125-.727 2.464-.356 3.689a4.888 4.888 0 006.11 3.205 4.938 4.938 0 002.878-2.365 96.14 96.14 0 003.803-8.375h-10.598z" fill="#fec1ee" fill-rule="nonzero"/><path d="M194.635 328.173c-.029.156-.043.327-.057.498-.656 8.832-3.248 20.384-5.983 30.497h11.78c2.535-9.814 4.871-20.668 5.54-29.443 1.44-9.771-4.557-28.132-8.546-38.858a981.265 981.265 0 01101.746 9.188c57.774 8.318 127.485 42.746 128.183 43.088a5.82 5.82 0 002.136.584 5.816 5.816 0 002.208-.27 6.016 6.016 0 001.923-1.097 5.776 5.776 0 001.368-1.738c.327-.67.527-1.396.584-2.137a5.636 5.636 0 00-.271-2.179 5.727 5.727 0 00-1.097-1.923 5.627 5.627 0 00-1.766-1.353c-2.906-1.453-72.018-35.568-131.644-44.171a955.675 955.675 0 00-111.717-9.53c-.94 0-1.866.214-2.706.656a5.693 5.693 0 00-2.065 1.837 5.498 5.498 0 00-.94 2.593c-.1.94.042 1.88.398 2.735 4.915 11.78 12.222 33.302 10.926 41.023zM169.18 329.355c.955 10.754-3.974 23.56-6.766 29.827h10.57c3.105-7.791 6.865-19.77 5.897-30.71a89.519 89.519 0 00-14.472-41.052 4.966 4.966 0 00-3.177-1.965 4.95 4.95 0 00-3.646.854 4.814 4.814 0 00-1.966 3.148 4.856 4.856 0 00.84 3.618 81.217 81.217 0 0112.72 36.28z" fill="#ff7698" fill-rule="nonzero"/></svg>